<svg width="35" height="29" viewBox="0 0 35 29" fill="none" xmlns="http://www.w3.org/2000/svg">
<path d="M18.5335 13.7551V10.2229C20.2127 10.5138 20.213 11.5448 20.213 11.9201H22.2253C22.2253 9.84661 20.8647 8.50888 18.5335 8.21762V6.8056H16.5213V8.21762C14.1902 8.50888 12.8296 9.84654 12.8296 11.9201C12.8296 13.9936 14.1901 15.3312 16.5213 15.6224V19.1547C14.8422 18.8637 14.8418 17.8328 14.8418 17.4575H12.8296C12.8296 19.531 14.1901 20.8687 16.5213 21.1599V22.572H18.5335V21.1599C20.8647 20.8687 22.2253 19.531 22.2253 17.4575C22.2253 15.384 20.8647 14.0464 18.5335 13.7551ZM16.5213 13.6172C14.8422 13.3263 14.8418 12.2954 14.8418 11.9201C14.8418 11.5448 14.8422 10.5138 16.5213 10.2229V13.6172ZM18.5335 19.1547V15.7603C20.2127 16.0513 20.213 17.0822 20.213 17.4575C20.213 17.8328 20.2127 18.8637 18.5335 19.1547Z" fill="black"/>
<path d="M24.4603 0.693359H10.5945C6.62425 0.693359 3.394 3.88503 3.394 7.80813V11.1654L2.10986 9.89652L0.687111 11.3025L4.40014 14.9713L8.11317 11.3025L6.69029 9.89659L5.40622 11.1654V7.80813C5.40622 4.98142 7.73367 2.68159 10.5945 2.68159H24.4603C27.3211 2.68159 29.6487 4.98129 29.6487 7.80813V12.9026H31.6609V7.80813C31.6609 3.88503 28.4307 0.693359 24.4603 0.693359Z" fill="black"/>
<path d="M30.6547 14.892L26.9417 18.5607L28.3646 19.9665L29.6487 18.6977V21.5085C29.6487 24.3352 27.3212 26.635 24.4604 26.635H10.5945C7.73378 26.635 5.4062 24.3353 5.4062 21.5085V16.9605H3.39397V21.5085C3.39397 25.4316 6.62416 28.6232 10.5945 28.6232H24.4603C28.4306 28.6232 31.6609 25.4316 31.6609 21.5085V18.6977L32.945 19.9664L34.3677 18.5607L30.6547 14.892Z" fill="black"/>
</svg>
