<svg width="70" height="48" viewBox="0 0 70 48" fill="none" xmlns="http://www.w3.org/2000/svg">
<path d="M34.9448 15.9413C39.1504 15.9413 42.5259 12.606 42.5259 8.4506C42.5259 4.29519 39.1504 0.932587 34.9448 0.932587C30.7393 0.932587 27.3638 4.26785 27.3638 8.42326C27.3638 12.606 30.7669 15.9413 34.9448 15.9413ZM17.3202 37.6478H3.67987C-0.747026 37.6478 -0.996039 30.9773 3.76288 30.9773H15.5772L22.3558 21.1082C24.3479 18.4291 26.6444 17.1442 29.8539 17.1442H39.9528C43.1899 17.1442 45.4587 18.3197 47.4508 21.1355L54.2572 31.0046H66.1545C70.9134 31.0046 70.6367 37.6752 66.3205 37.6752H52.6801C51.601 37.6752 50.3006 37.2924 49.5259 36.1442L44.3243 28.8176L44.2967 47.1889H25.676L25.6483 28.8176L20.4467 36.1442C19.6997 37.2651 18.3993 37.6478 17.3202 37.6478Z" fill="url(#paint0_linear_2_1101)"/>
<path d="M8.02375 12.0045C3.59685 12.0045 0 15.5585 0 19.9326C0 24.3067 3.59685 27.8607 8.02375 27.8607C12.4506 27.8607 16.0475 24.3067 16.0475 19.9326C16.0475 15.5585 12.4506 12.0045 8.02375 12.0045ZM8.02375 26.2751C4.48223 26.2751 1.57708 23.4319 1.57708 19.9053C1.57708 16.3787 4.48223 13.5628 8.02375 13.5628C11.5653 13.5628 14.4704 16.406 14.4704 19.9326C14.4151 23.4319 11.5376 26.2751 8.02375 26.2751ZM12.0356 18.3744C11.8973 18.1283 11.5653 17.9643 11.2332 18.1556L8.38344 19.4132V16.0779C8.38344 15.8866 8.3281 15.7499 8.18976 15.6132C8.07909 15.5038 7.94075 15.4765 7.77474 15.4765C7.47039 15.4765 7.13837 15.6952 7.13837 16.0779V20.4247C7.13837 20.6708 7.27671 20.8895 7.49806 20.9988C7.60873 21.0535 7.69173 21.0808 7.80241 21.0808C7.91308 21.0808 7.99608 21.0535 8.10675 20.9988L11.7866 19.2765C11.9526 19.1945 12.0633 19.0578 12.1186 18.8938C12.1186 18.7297 12.1186 18.5384 12.0356 18.3744Z" fill="url(#paint1_linear_2_1101)"/>
<path d="M61.2848 16.2693V15.2578L60.2058 15.0665C60.1228 14.7111 59.9844 14.383 59.7908 14.1096L60.4271 13.2348L59.7078 12.524L58.8224 13.1528C58.518 12.9614 58.186 12.8247 57.854 12.7427L57.6603 11.6765H56.6366L56.4429 12.7427C56.0832 12.8247 55.7512 12.9614 55.4745 13.1528L54.5892 12.524L53.8698 13.2348L54.5062 14.1096C54.3125 14.4103 54.1741 14.7384 54.0911 15.0665L53.0121 15.2578V16.2693L54.0911 16.4607C54.1741 16.8161 54.3125 17.1442 54.5062 17.4175L53.8698 18.2924L54.5892 19.0032L55.4745 18.3744C55.7789 18.5657 56.1109 18.7024 56.4429 18.7845L56.6366 19.8506H57.6603L57.854 18.7845C58.2137 18.7024 58.5457 18.5657 58.8224 18.3744L59.7078 19.0032L60.4271 18.2924L59.7908 17.4175C59.9844 17.1168 60.1228 16.7888 60.2058 16.4607L61.2848 16.2693ZM57.1346 17.3902C56.2216 17.3902 55.5022 16.6521 55.5022 15.7772C55.5022 14.9024 56.2492 14.1643 57.1346 14.1643C58.0477 14.1643 58.767 14.9024 58.767 15.7772C58.767 16.6521 58.0477 17.3902 57.1346 17.3902ZM68.4509 22.1197L69.7236 21.3542L69.1979 20.0693L67.7592 20.3974C67.4825 20.0147 67.1505 19.6593 66.7355 19.3859L67.0675 17.9643L65.7947 17.4449L64.9924 18.6751C64.522 18.5931 64.024 18.5931 63.5536 18.6751L62.7789 17.4449L61.4785 17.9643L61.8105 19.3859C61.4232 19.6593 61.0635 19.9873 60.7868 20.3974L59.3481 20.0693L58.8224 21.3269L60.0674 22.1197C59.9844 22.5845 59.9844 23.0766 60.0674 23.5413L58.7947 24.3068L59.3204 25.5917L60.7592 25.2636C61.0358 25.6463 61.3678 26.0017 61.7829 26.2751L61.4509 27.6967L62.7236 28.2161L63.526 26.9859C63.9963 27.0679 64.4943 27.0679 64.9647 26.9859L65.7394 28.2161L67.0398 27.6967L66.7078 26.2751C67.0951 26.0017 67.4548 25.6737 67.7315 25.2636L69.1703 25.5917L69.6959 24.3341L68.4509 23.5413C68.5339 23.0492 68.5339 22.5845 68.4509 22.1197ZM66.2928 23.6507C65.8224 24.7715 64.522 25.2909 63.3876 24.8262C62.2532 24.3614 61.7275 23.0766 62.1979 21.9557C62.6682 20.8348 63.9687 20.3154 65.103 20.7801C66.2374 21.2449 66.7908 22.5298 66.2928 23.6507Z" fill="url(#paint2_linear_2_1101)"/>
<defs>
<linearGradient id="paint0_linear_2_1101" x1="34.9586" y1="0.932587" x2="34.9586" y2="112.091" gradientUnits="userSpaceOnUse">
<stop stop-color="#0082FF"/>
<stop offset="1" stop-color="white" stop-opacity="0"/>
</linearGradient>
<linearGradient id="paint1_linear_2_1101" x1="8.02375" y1="12.0045" x2="8.02375" y2="50.1086" gradientUnits="userSpaceOnUse">
<stop stop-color="#0082FF"/>
<stop offset="1" stop-color="white" stop-opacity="0"/>
</linearGradient>
<linearGradient id="paint2_linear_2_1101" x1="61.3678" y1="11.6765" x2="61.3678" y2="51.423" gradientUnits="userSpaceOnUse">
<stop stop-color="#0082FF"/>
<stop offset="1" stop-color="white" stop-opacity="0"/>
</linearGradient>
</defs>
</svg>
