<svg width="36" height="31" viewBox="0 0 36 31" fill="none" xmlns="http://www.w3.org/2000/svg">
<path d="M19.252 18.6766C17.6314 18.3328 16.1521 17.5358 14.9741 16.3719C13.3454 14.7626 12.4485 12.6231 12.4485 10.3473C12.4485 8.07158 13.3454 5.93207 14.9741 4.32283C18.3363 1.00097 23.8066 1.00097 27.1686 4.32283C29.5746 6.70017 30.3415 10.2651 29.1222 13.405C28.9543 13.8376 29.1731 14.3229 29.6109 14.4889C30.0488 14.6546 30.5399 14.4387 30.7079 14.0061C32.1671 10.2482 31.2491 5.98163 28.3694 3.13634C26.42 1.21016 23.8282 0.149414 21.0714 0.149414C18.3145 0.149414 15.7227 1.21016 13.7733 3.13634C11.8239 5.06251 10.7503 7.62343 10.7503 10.3473C10.7503 12.7896 11.6157 15.0991 13.199 16.9393L10.9539 19.1578L9.60477 17.8247C9.27314 17.4971 8.73547 17.4971 8.40396 17.8247L1.56096 24.586C0.165643 25.9647 0.165643 28.2079 1.56096 29.5867L1.59991 29.6252C2.27583 30.2931 3.17457 30.6609 4.13048 30.6609C5.0864 30.6609 5.98502 30.2931 6.66094 29.6252L10.5928 25.7402C10.9245 25.4125 10.9245 24.8812 10.5928 24.5537C10.2612 24.226 9.72353 24.226 9.39203 24.5537L5.46002 28.4386C5.10485 28.7895 4.63261 28.9827 4.13037 28.9827C3.62801 28.9827 3.15589 28.7894 2.80072 28.4386L2.76177 28.4001C2.02867 27.6756 2.02867 26.497 2.76177 25.7725L9.00425 19.6045L12.3029 22.8638C12.6345 23.1915 13.1722 23.1915 13.5037 22.8638C13.8353 22.5361 13.8353 22.0048 13.5037 21.6773L12.1546 20.3443L14.3991 18.1265C15.6927 19.2116 17.2312 19.9642 18.8953 20.3173C18.9555 20.33 19.0155 20.3361 19.0745 20.3361C19.4661 20.3361 19.8183 20.0667 19.9039 19.673C20.0024 19.2201 19.7105 18.7739 19.252 18.6766Z" fill="black"/>
<path d="M27.9459 15.5333C23.9302 15.5333 20.6633 18.7613 20.6633 22.7291C20.6633 26.6969 23.9302 29.9249 27.9459 29.9249C31.9616 29.9249 35.2285 26.6969 35.2285 22.7291C35.2285 18.7613 31.9616 15.5333 27.9459 15.5333ZM27.9459 28.2468C24.8667 28.2468 22.3616 25.7716 22.3616 22.7291C22.3616 19.6865 24.8667 17.2113 27.9459 17.2113C31.0251 17.2113 33.5302 19.6865 33.5302 22.7291C33.5302 25.7716 31.0251 28.2468 27.9459 28.2468Z" fill="black"/>
<path d="M30.0099 20.3697L27.0353 23.3088L25.8819 22.1692C25.5503 21.8415 25.0126 21.8415 24.6811 22.1692C24.3495 22.4969 24.3495 23.0281 24.6811 23.3557L26.4349 25.0886C26.6006 25.2523 26.818 25.3343 27.0353 25.3343C27.2525 25.3343 27.4699 25.2524 27.6357 25.0886L31.2108 21.556C31.5424 21.2284 31.5424 20.6971 31.2108 20.3696C30.8792 20.042 30.3415 20.042 30.0099 20.3697Z" fill="black"/>
</svg>
