<svg width="34" height="29" viewBox="0 0 34 29" fill="none" xmlns="http://www.w3.org/2000/svg">
<path d="M8.8176 24.1731V11.8141C8.8176 10.1077 10.2176 8.72437 11.9446 8.72437H29.1433C30.8704 8.72437 32.2703 10.1077 32.2703 11.8141V24.1731C32.2703 25.8796 30.8704 27.2629 29.1433 27.2629H11.9446C10.2176 27.2629 8.8176 25.8796 8.8176 24.1731Z" stroke="black" stroke-width="2"/>
<path d="M8.03582 19.5385H4.12703C2.40002 19.5385 1 18.1552 1 16.4487V4.08975C1 2.38333 2.40002 1 4.12703 1H21.3257C23.0528 1 24.4527 2.38333 24.4527 4.08975V8.72437" stroke="black" stroke-width="2"/>
<path d="M13.5081 13.3589H15.0717" stroke="black" stroke-width="2" stroke-linecap="round" stroke-linejoin="round"/>
<path d="M5.69055 5.63464H7.25407" stroke="black" stroke-width="2" stroke-linecap="round" stroke-linejoin="round"/>
</svg>
