<svg width="35" height="29" viewBox="0 0 35 29" fill="none" xmlns="http://www.w3.org/2000/svg">
<path d="M33.6921 19.0474H31.1906V5.5784C31.1906 4.97532 30.6959 4.48653 30.0856 4.48653H22.3868V2.01478C22.3868 1.41171 21.8921 0.922913 21.2818 0.922913H14.0686C13.4582 0.922913 12.9635 1.41171 12.9635 2.01478V4.48653H5.26479C4.65444 4.48653 4.15975 4.97532 4.15975 5.5784V19.0474H1.6583C1.04794 19.0474 0.553253 19.5362 0.553253 20.1393V27.2666C0.553253 27.8696 1.04794 28.3584 1.6583 28.3584H8.87141C9.48176 28.3584 9.97645 27.8696 9.97645 27.2666V20.1393C9.97645 19.5362 9.48176 19.0474 8.87141 19.0474H6.36984V6.67027H12.9635V9.14202C12.9635 9.74509 13.4582 10.2339 14.0686 10.2339H16.5701V19.0474H14.0686C13.4582 19.0474 12.9635 19.5362 12.9635 20.1393V27.2666C12.9635 27.8696 13.4582 28.3584 14.0686 28.3584H21.2818C21.8921 28.3584 22.3868 27.8696 22.3868 27.2666V20.1393C22.3868 19.5362 21.8921 19.0474 21.2818 19.0474H18.7802V10.2339H21.2818C21.8921 10.2339 22.3868 9.74509 22.3868 9.14202V6.67027H28.9805V19.0474H26.4789C25.8686 19.0474 25.3739 19.5362 25.3739 20.1393V27.2666C25.3739 27.8696 25.8686 28.3584 26.4789 28.3584H33.6921C34.3024 28.3584 34.7971 27.8696 34.7971 27.2666V20.1393C34.7971 19.5364 34.3024 19.0474 33.6921 19.0474ZM7.76637 26.1747H2.76334V21.2312H7.76637V26.1747ZM20.1767 26.1747H15.1736V21.2312H20.1767V26.1747ZM20.1767 8.05015H15.1736V3.10665H20.1767V8.05015ZM32.587 26.1747H27.584V21.2312H32.587V26.1747Z" fill="black"/>
</svg>
