<svg width="55" height="55" viewBox="0 0 55 55" fill="none" xmlns="http://www.w3.org/2000/svg">
<path d="M34.0273 21.7667C34.0278 20.9653 34.0276 21.1176 34.0263 12.0596C34.0263 12.0501 34.0269 12.0406 34.0269 12.0311C34.0269 5.68987 26.2258 0.944519 17.0136 0.944519C7.80296 0.944519 0.0136564 5.68568 0.000738183 12.0156C0.000738183 12.0211 0 12.0264 0 12.032C0 13.2641 0 42.3012 0 43.8878C0 53.7991 17.9293 58.3313 28.3971 52.1593C39.4878 59.4712 54.8257 51.7434 54.8257 38.1619C54.8256 27.1291 44.4059 19.3853 34.0273 21.7667ZM17.0134 3.6797C24.7323 3.6797 31.2534 7.50129 31.2583 12.026C31.2583 12.028 31.258 12.03 31.258 12.032C31.258 12.045 31.2569 12.0574 31.2567 12.0703C31.219 16.5795 24.7112 20.3807 17.0133 20.3807C9.29169 20.3807 2.76837 16.5571 2.76837 12.0313C2.76855 7.50421 9.29206 3.6797 17.0134 3.6797ZM2.768 18.1421C6.29374 21.6354 11.9622 23.1159 17.0134 23.1159C22.0146 23.1159 27.7202 21.6476 31.2587 18.1424C31.2591 18.9333 31.26 21.861 31.258 22.646C27.3128 24.2712 24.2583 27.2812 22.5236 30.7868C13.2186 33.1372 2.768 28.9409 2.768 23.1004V18.1421ZM2.768 29.2677C7.40766 33.6888 15.1045 34.8848 21.3781 33.8237C20.67 36.4698 20.5824 39.3074 21.2779 42.1287C13.3773 43.6139 3.38512 40.3982 2.7966 34.6744C2.75711 34.2918 2.768 34.6662 2.768 29.2677ZM2.768 43.8878V40.2901C7.37297 44.8248 15.7059 46.0677 22.1569 44.7475C23.07 46.8711 24.4355 48.7863 26.0556 50.3129C17.0184 54.8099 2.768 50.8944 2.768 43.8878ZM29.27 49.4238C20.1079 42.6296 22.4706 28.572 33.0811 24.8826C33.082 24.8823 33.0828 24.8817 33.0837 24.8815C33.0896 24.8795 33.0957 24.8777 33.1016 24.8755C42.3217 21.6768 52.0572 28.4181 52.0572 38.1619C52.0574 49.9502 38.4529 56.2407 29.27 49.4238Z" fill="url(#paint0_linear_2_1093)"/>
<defs>
<linearGradient id="paint0_linear_2_1093" x1="19" y1="-2.01971" x2="19" y2="108.645" gradientUnits="userSpaceOnUse">
<stop stop-color="#0082FF"/>
<stop offset="1" stop-color="white"/>
</linearGradient>
</defs>
</svg>
