<svg width="29" height="28" viewBox="0 0 29 28" fill="none" xmlns="http://www.w3.org/2000/svg">
<path d="M23.1177 0L21.6964 1.40439L24.2956 3.97254H19.1796C17.0055 3.97077 14.8513 4.38064 12.8334 5.17999L8.53275 6.87964C6.75239 7.58513 4.85164 7.9468 2.93344 7.94508H0V9.93135H2.93344C5.10749 9.93312 7.26174 9.52325 9.27966 8.7239L13.5799 7.02424C15.3602 6.31876 17.261 5.95709 19.1792 5.95881H24.2952L21.696 8.52696L23.1177 9.93135L28.1433 4.96567L23.1177 0Z" fill="black"/>
<path d="M19.0973 8.93823L17.6759 10.3426L20.2752 12.9108H16.9879C14.9388 12.9095 12.9063 13.2737 10.9881 13.9858L8.40852 14.9416C6.71598 15.57 4.92254 15.8914 3.11446 15.8902H-3.8147e-06V17.8764H3.11446C5.16358 17.8777 7.19611 17.5135 9.11431 16.8014L11.6939 15.8456C13.3864 15.2172 15.1798 14.8958 16.9879 14.897H20.2752L17.6759 17.4652L19.0973 18.8696L24.1228 13.9039L19.0973 8.93823Z" fill="black"/>
<path d="M15.0768 17.8765L13.6554 19.2809L16.2547 21.849H14.6714C12.8347 21.8486 11.0099 22.1411 9.26739 22.7151L8.1892 23.0711C6.65167 23.5776 5.04147 23.8357 3.42072 23.8353H-3.8147e-06V25.8215H3.42072C5.25748 25.8219 7.08227 25.5294 8.82474 24.9554L9.90293 24.5995C11.4405 24.0929 13.0507 23.8349 14.6714 23.8353H16.2547L13.6554 26.4034L15.0768 27.8078L20.1024 22.8421L15.0768 17.8765Z" fill="black"/>
</svg>
