<svg width="28" height="34" viewBox="0 0 28 34" fill="none" xmlns="http://www.w3.org/2000/svg">
<path fill-rule="evenodd" clip-rule="evenodd" d="M9.27448 1.52732C9.27448 0.683804 9.96653 0 10.8202 0H17.0032C17.8569 0 18.549 0.683804 18.549 1.52732C18.549 2.37083 17.8569 3.05464 17.0032 3.05464H10.8202C9.96653 3.05464 9.27448 2.37083 9.27448 1.52732Z" fill="black"/>
<path fill-rule="evenodd" clip-rule="evenodd" d="M19.642 14.1934C20.2457 14.7898 20.2457 15.7569 19.642 16.3533L15.0048 20.9353C14.4011 21.5317 13.4224 21.5317 12.8187 20.9353C12.2151 20.3388 12.2151 19.3718 12.8187 18.7753L17.456 14.1934C18.0596 13.5969 19.0384 13.5969 19.642 14.1934Z" fill="black"/>
<path fill-rule="evenodd" clip-rule="evenodd" d="M13.9117 9.16395C7.93586 9.16395 3.09147 13.9506 3.09147 19.8552C3.09147 25.7598 7.93586 30.5464 13.9117 30.5464C19.8876 30.5464 24.732 25.7598 24.732 19.8552C24.732 13.9506 19.8876 9.16395 13.9117 9.16395ZM-3.05176e-05 19.8552C-3.05176e-05 12.2636 6.22847 6.10931 13.9117 6.10931C21.595 6.10931 27.8235 12.2636 27.8235 19.8552C27.8235 27.4468 21.595 33.6011 13.9117 33.6011C6.22847 33.6011 -3.05176e-05 27.4468 -3.05176e-05 19.8552Z" fill="black"/>
</svg>
