<svg width="55" height="55" viewBox="0 0 55 55" fill="none" xmlns="http://www.w3.org/2000/svg">
<g clip-path="url(#clip0_2_1110)">
<path d="M37.0223 12.0239C36.8928 11.8932 36.7318 11.7987 36.558 11.7439L26.088 8.45648C21.9012 7.14175 19.1773 9.43523 18.4435 10.1713C18.0153 10.5995 17.6875 11.0509 17.5196 11.4441L12.8556 22.4145C12.5885 23.0421 12.6795 23.8785 13.0982 24.7126C13.6979 25.9037 14.7781 26.7623 16.0695 27.0715C17.5149 27.4179 19.0139 26.9478 20.1875 25.7754C20.4943 25.4686 20.7556 25.1303 20.9096 24.8433L22.4775 21.935C22.7353 21.4532 23.1098 20.954 23.5041 20.5597C24.8491 19.2134 25.4884 19.8294 25.7602 20.0907C28.1062 22.355 40.4053 34.7067 40.4053 34.7067C40.8428 35.1441 40.7518 35.9736 40.2047 36.5195C39.6587 37.0643 38.8281 37.1576 38.3918 36.7225L34.9365 33.2683C34.4908 32.8215 33.7722 32.8215 33.3266 33.2683C32.881 33.7104 32.881 34.4325 33.3266 34.877L36.782 38.3335C37.2183 38.7687 37.1273 39.5981 36.5813 40.1429C36.0354 40.69 35.2036 40.781 34.7696 40.3459L31.3131 36.8916C30.8675 36.446 30.1465 36.446 29.7032 36.8916C29.2576 37.3338 29.2576 38.0559 29.7032 38.5015L33.1586 41.9569C33.5949 42.3932 33.5004 43.2226 32.9556 43.7686C32.4108 44.3134 31.5814 44.4067 31.1439 43.9692L27.6886 40.515C27.2453 40.0706 26.5231 40.0706 26.0787 40.515C25.6354 40.9595 25.6354 41.6816 26.0787 42.1237L29.5341 45.5803C29.9715 46.0177 29.8782 46.8472 29.3334 47.3931C28.7851 47.9391 27.9557 48.0312 27.5206 47.5949L23.3139 43.3848C23.9147 42.4819 23.7514 41.1718 22.8601 40.277C21.8615 39.2796 20.3252 39.1875 19.4362 40.0787C20.3252 39.1886 20.2377 37.6546 19.2367 36.6548C18.2358 35.6562 16.703 35.5641 15.814 36.453C16.703 35.5641 16.6131 34.0312 15.611 33.0326C14.6125 32.0317 13.0796 31.9407 12.1883 32.8296C13.0796 31.9407 12.9874 30.4078 11.9877 29.4058C11.0521 28.4702 9.65803 28.343 8.75161 29.0558L1.94 22.2442C1.49553 21.7986 0.773427 21.7986 0.328963 22.2442C-0.114334 22.6875 -0.114334 23.4096 0.328963 23.8552L7.12307 30.6482L5.1084 32.6628C4.21948 33.5506 4.3093 35.0835 5.31139 36.0855C6.30997 37.0841 7.84285 37.1763 8.73294 36.2862C7.84285 37.1763 7.93384 38.708 8.93476 39.7089C9.93334 40.7063 11.4674 40.8008 12.3575 39.9107C11.4674 40.8008 11.5572 42.3325 12.5581 43.3323C13.559 44.3332 15.0919 44.4242 15.9808 43.5353C15.0919 44.423 15.1817 45.9547 16.1827 46.9568C17.1824 47.9554 18.7141 48.0476 19.6054 47.1575L21.7332 45.0308L25.9107 49.2071C27.2441 50.5405 29.4991 50.4472 30.9433 49.0053C31.6467 48.3019 32.0224 47.4036 32.0749 46.5147C32.9638 46.4622 33.8632 46.0854 34.5655 45.3808C35.2701 44.6773 35.6481 43.7791 35.7017 42.8902C36.5895 42.8377 37.4854 42.462 38.1924 41.7574C38.8958 41.0528 39.2726 40.1557 39.3239 39.2656C40.214 39.2143 41.1123 38.8387 41.8169 38.1317C43.2588 36.6898 43.3474 34.4313 42.0175 33.1003L40.256 31.3376L47.4888 24.106C47.9332 23.6627 47.9332 22.9406 47.4888 22.4962L37.0223 12.0239Z" fill="url(#paint0_linear_2_1110)"/>
<path d="M54.1639 14.5693L44.9468 5.35223C44.0579 4.46214 42.6148 4.46214 41.7247 5.35223L38.5027 8.57197C37.6137 9.4609 37.6137 10.9039 38.5027 11.7929L47.7209 21.0123C48.611 21.9012 50.054 21.9012 50.943 21.0123L54.1639 17.7914C55.0516 16.9013 55.0516 15.4582 54.1639 14.5693ZM49.3261 19.2636C48.2949 19.2636 47.4573 18.4272 47.4573 17.3947C47.4573 16.3623 48.2949 15.5247 49.3261 15.5247C50.3585 15.5247 51.1961 16.3612 51.1961 17.3947C51.195 18.426 50.3585 19.2636 49.3261 19.2636Z" fill="url(#paint1_linear_2_1110)"/>
</g>
<defs>
<linearGradient id="paint0_linear_2_1110" x1="23.9093" y1="4.18332" x2="23.9093" y2="115.744" gradientUnits="userSpaceOnUse">
<stop stop-color="#0082FF"/>
<stop offset="1" stop-color="white" stop-opacity="0"/>
</linearGradient>
<linearGradient id="paint1_linear_2_1110" x1="46.3328" y1="3.1205" x2="46.3328" y2="48.1618" gradientUnits="userSpaceOnUse">
<stop stop-color="#0082FF"/>
<stop offset="1" stop-color="white" stop-opacity="0"/>
</linearGradient>
<clipPath id="clip0_2_1110">
<rect width="54.83" height="54.83" fill="white"/>
</clipPath>
</defs>
</svg>
